{
  "accessors": [
    {
      "bufferView": 1,
      "componentType": 5126,
      "count": 524,
      "max": [
        71.625,
        -28.402799606323242,
        55.43510055541992
      ],
      "min": [
        -10.393199920654297,
        -61.491600036621094,
        2.000699996948242
      ],
      "type": "VEC3"
    },
    {
      "bufferView": 1,
      "byteOffset": 6288,
      "componentType": 5126,
      "count": 524,
      "max": [
        0.9979059100151062,
        0.9514365792274475,
        0.19682441651821136
      ],
      "min": [
        -0.9983662366867065,
        -0.9526503086090088,
        -0.9795162677764893
      ],
      "type": "VEC3"
    },
    {
      "bufferView": 0,
      "componentType": 5125,
      "count": 1575,
      "type": "SCALAR"
    },
    {
      "bufferView": 1,
      "byteOffset": 12576,
      "componentType": 5126,
      "count": 1700,
      "max": [
        75.0,
        -0.0,
        102.0
      ],
      "min": [
        -15.0,
        -100.0,
        2.0
      ],
      "type": "VEC3"
    },
    {
      "bufferView": 1,
      "byteOffset": 32976,
      "componentType": 5126,
      "count": 1700,
      "max": [
        0.9998728036880493,
        1.0,
        1.0
      ],
      "min": [
        -0.9996379017829895,
        -1.0,
        -0.9778763651847839
      ],
      "type": "VEC3"
    },
    {
      "bufferView": 0,
      "byteOffset": 6300,
      "componentType": 5125,
      "count": 8082,
      "type": "SCALAR"
    },
    {
      "bufferView": 1,
      "byteOffset": 53376,
      "componentType": 5126,
      "count": 961,
      "max": [
        74.58999633789063,
        -29.3439998626709,
        56.237998962402344
      ],
      "min": [
        -14.59000015258789,
        -75.7040023803711,
        2.0
      ],
      "type": "VEC3"
    },
    {
      "bufferView": 1,
      "byteOffset": 64908,
      "componentType": 5126,
      "count": 961,
      "max": [
        1.0,
        0.959210991859436,
        0.6240040063858032
      ],
      "min": [
        -1.0,
        -1.0,
        -0.9734051823616028
      ],
      "type": "VEC3"
    },
    {
      "bufferView": 0,
      "byteOffset": 38628,
      "componentType": 5125,
      "count": 3405,
      "type": "SCALAR"
    }
  ],
  "asset": {
    "extras": {
      "author": "londonik (https://sketchfab.com/londonik)",
      "license": "CC-BY-4.0 (http://creativecommons.org/licenses/by/4.0/)",
      "source": "https://sketchfab.com/3d-models/pacman-that-nobody-asked-for-6053a8ff527f4f1781ed85992d63fa71",
      "title": "pacman that nobody asked for!"
    },
    "generator": "Sketchfab-15.37.0",
    "version": "2.0"
  },
  "bufferViews": [
    {
      "buffer": 0,
      "byteLength": 52248,
      "name": "floatBufferViews",
      "target": 34963
    },
    {
      "buffer": 0,
      "byteLength": 76440,
      "byteOffset": 52248,
      "byteStride": 12,
      "name": "floatBufferViews",
      "target": 34962
    }
  ],
  "buffers": [
    {
      "byteLength": 128688,
      "uri": "scene.bin"
    }
  ],
  "extensionsUsed": [
    "KHR_materials_clearcoat"
  ],
  "materials": [
    {
      "doubleSided": true,
      "name": "color_15277357",
      "pbrMetallicRoughness": {
        "baseColorFactor": [
          1.0,
          0.0,
          0.01854460090541003,
          1.0
        ],
        "metallicFactor": 0.0
      }
    },
    {
      "doubleSided": true,
      "name": "color_16768282",
      "pbrMetallicRoughness": {
        "baseColorFactor": [
          1.0,
          0.9602083826516897,
          0.0,
          1.0
        ],
        "metallicFactor": 0.0
      }
    },
    {
      "doubleSided": true,
      "extensions": {
        "KHR_materials_clearcoat": {
          "clearcoatFactor": 1.0,
          "clearcoatRoughnessFactor": 0.3154295327376236
        }
      },
      "name": "color_2829873",
      "pbrMetallicRoughness": {
        "baseColorFactor": [
          0.0,
          0.0,
          0.0,
          1.0
        ],
        "metallicFactor": 0.0
      }
    }
  ],
  "meshes": [
    {
      "name": "Object_0",
      "primitives": [
        {
          "attributes": {
            "NORMAL": 1,
            "POSITION": 0
          },
          "indices": 2,
          "material": 0,
          "mode": 4
        }
      ]
    },
    {
      "name": "Object_1",
      "primitives": [
        {
          "attributes": {
            "NORMAL": 4,
            "POSITION": 3
          },
          "indices": 5,
          "material": 1,
          "mode": 4
        }
      ]
    },
    {
      "name": "Object_2",
      "primitives": [
        {
          "attributes": {
            "NORMAL": 7,
            "POSITION": 6
          },
          "indices": 8,
          "material": 2,
          "mode": 4
        }
      ]
    }
  ],
  "nodes": [
    {
      "children": [
        1
      ],
      "matrix": [
        1.0,
        0.0,
        0.0,
        0.0,
        0.0,
        -1.0,
        -4.440892098500626e-16,
        0.0,
        0.0,
        4.440892098500626e-16,
        -1.0,
        0.0,
        0.0,
        0.0,
        0.0,
        1.0
      ],
      "name": "Sketchfab_model"
    },
    {
      "children": [
        2,
        3,
        4
      ],
      "name": "tinker.obj.cleaner.materialmerger.gles"
    },
    {
      "mesh": 0,
      "name": "Object_2"
    },
    {
      "mesh": 1,
      "name": "Object_3"
    },
    {
      "mesh": 2,
      "name": "Object_4"
    }
  ],
  "scene": 0,
  "scenes": [
    {
      "name": "Sketchfab_Scene",
      "nodes": [
        0
      ]
    }
  ]
}
